<?xml version="1.0" standalone="no"?>
<!DOCTYPE svg PUBLIC "-//W3C//DTD SVG 20010904//EN"
 "http://www.w3.org/TR/2001/REC-SVG-20010904/DTD/svg10.dtd">
<svg version="1.0" xmlns="http://www.w3.org/2000/svg"
 width="150.000000pt" height="150.000000pt" viewBox="0 0 150.000000 150.000000"
 preserveAspectRatio="xMidYMid meet">
<metadata>
Created by potrace 1.13, written by Peter Selinger 2001-2015
</metadata>
<g transform="translate(0.000000,150.000000) scale(0.100000,-0.100000)"
fill="#000000" stroke="none">
<path d="M593 1494 c-7 -3 -22 -21 -34 -40 -25 -40 -57 -59 -119 -69 -59 -9
-78 -28 -86 -84 -9 -63 -25 -90 -73 -129 -33 -26 -41 -39 -41 -65 1 -18 7 -43
15 -57 19 -33 19 -82 0 -127 -26 -62 -20 -85 35 -132 44 -37 50 -48 61 -103
14 -70 36 -98 78 -98 49 0 84 -19 133 -72 52 -55 59 -57 145 -24 39 15 47 15
85 0 87 -32 93 -31 151 29 41 43 62 57 92 62 96 15 99 18 115 107 8 46 17 59
61 99 57 51 58 58 28 157 -12 37 -11 49 4 91 27 76 23 95 -27 136 -46 37 -60
63 -71 130 -9 54 -29 73 -84 81 -63 9 -95 27 -120 68 -12 19 -28 37 -37 40
-26 10 -68 6 -94 -9 -14 -8 -41 -14 -60 -14 -19 0 -46 6 -60 14 -24 14 -73 18
-97 9z m277 -236 c130 -56 203 -209 165 -345 -23 -84 -77 -150 -150 -188 -50
-26 -70 -30 -135 -30 -65 0 -85 4 -135 30 -105 54 -176 184 -160 294 30 204
230 319 415 239z"/>
<path d="M715 1117 l-30 -62 -65 -9 c-36 -5 -67 -11 -69 -13 -3 -2 17 -26 44
-53 l48 -49 -9 -66 c-6 -36 -7 -65 -2 -65 4 0 32 12 63 27 l55 27 55 -27 c31
-15 59 -27 63 -27 5 0 4 29 -2 65 l-9 66 48 49 c27 27 47 51 44 54 -2 2 -33 8
-69 12 l-65 9 -30 62 c-16 35 -32 63 -35 62 -3 0 -18 -28 -35 -62z"/>
<path d="M257 355 c-59 -118 -107 -218 -107 -221 0 -6 96 2 150 12 22 4 31 -5
74 -71 27 -42 51 -74 53 -71 5 5 203 417 203 423 0 2 -13 9 -29 14 -16 6 -41
28 -56 49 -29 42 -39 48 -105 60 -25 4 -52 10 -60 14 -12 5 -40 -43 -123 -209z"/>
<path d="M1057 546 c-36 -10 -59 -25 -90 -59 -25 -27 -55 -50 -74 -54 l-32 -8
122 -212 c67 -117 126 -211 131 -210 5 2 20 33 35 69 14 37 29 69 32 72 3 4
41 1 83 -5 43 -5 80 -8 83 -5 8 8 -218 426 -230 425 -7 0 -34 -6 -60 -13z"/>
</g>
</svg>
