<?xml version="1.0" standalone="no"?>
<!DOCTYPE svg PUBLIC "-//W3C//DTD SVG 20010904//EN"
 "http://www.w3.org/TR/2001/REC-SVG-20010904/DTD/svg10.dtd">
<svg version="1.0" xmlns="http://www.w3.org/2000/svg"
 width="626.000000pt" height="626.000000pt" viewBox="0 0 626.000000 626.000000"
 preserveAspectRatio="xMidYMid meet">
<metadata>
Created by potrace 1.13, written by Peter Selinger 2001-2015
</metadata>
<g transform="translate(0.000000,626.000000) scale(0.100000,-0.100000)"
fill="#000000" stroke="none">
<path d="M1290 4370 l0 -570 -318 0 -319 0 -129 -172 c-71 -95 -130 -176 -132
-180 -2 -5 199 -8 447 -8 l451 0 0 -135 0 -135 -509 0 -510 0 -130 -175 c-72
-96 -131 -177 -131 -180 0 -3 288 -5 640 -5 l640 0 0 -115 0 -115 -70 0 -70 0
0 -300 0 -299 68 -3 67 -3 3 -42 3 -42 47 -3 47 -3 26 -80 c30 -94 49 -132 97
-200 129 -181 331 -285 552 -285 192 0 338 59 473 193 95 93 141 168 182 294
l26 83 757 0 c416 0 762 -4 768 -8 6 -4 15 -23 19 -42 34 -163 175 -349 330
-435 107 -59 210 -85 338 -85 99 1 123 4 207 33 189 64 329 191 410 371 16 34
32 80 35 101 4 22 12 46 18 52 7 10 68 13 243 13 l233 0 3 43 3 42 78 3 77 3
0 299 0 300 -80 0 -80 0 0 41 c0 22 -20 105 -44 182 -25 78 -63 205 -86 282
-40 131 -117 383 -160 520 -10 33 -37 123 -60 200 -23 77 -64 210 -90 295 -47
154 -107 349 -116 383 -5 16 -44 17 -630 17 l-624 0 0 220 0 220 -1500 0
-1500 0 0 -570z m4014 -202 c45 -143 132 -432 161 -528 20 -69 47 -158 61
-199 13 -40 24 -75 24 -77 0 -2 -211 -4 -470 -4 l-470 0 0 410 0 410 345 0
c268 0 346 -3 349 -12z m-3082 -1846 c74 -36 133 -96 170 -170 20 -40 23 -63
23 -152 0 -89 -3 -112 -23 -152 -37 -74 -96 -134 -170 -170 -61 -30 -74 -33
-162 -33 -113 0 -165 20 -246 97 -76 72 -108 149 -108 258 -1 72 4 94 27 145
45 96 124 166 227 202 19 7 71 11 115 10 68 -2 91 -7 147 -35z m2883 1 c79
-41 131 -94 169 -173 27 -57 31 -75 31 -150 0 -74 -4 -93 -31 -150 -38 -79
-93 -136 -171 -175 -52 -27 -67 -30 -154 -30 -91 0 -100 2 -165 36 -82 43
-141 109 -174 196 -59 157 11 352 156 434 74 41 106 49 194 46 72 -3 94 -8
145 -34z"/>
</g>
</svg>
