<?xml version="1.0" standalone="no"?>
<!DOCTYPE svg PUBLIC "-//W3C//DTD SVG 20010904//EN"
 "http://www.w3.org/TR/2001/REC-SVG-20010904/DTD/svg10.dtd">
<svg version="1.0" xmlns="http://www.w3.org/2000/svg"
 width="350.000000pt" height="350.000000pt" viewBox="0 0 350.000000 350.000000"
 preserveAspectRatio="xMidYMid meet">
<metadata>
Created by potrace 1.13, written by Peter Selinger 2001-2015
</metadata>
<g transform="translate(0.000000,350.000000) scale(0.100000,-0.100000)"
fill="#000000" stroke="none">
<path d="M1504 3485 c-498 -76 -925 -347 -1205 -764 -461 -686 -372 -1613 211
-2201 351 -354 807 -534 1305 -517 813 29 1481 597 1652 1406 24 113 27 148
27 336 1 233 -15 344 -75 533 -197 615 -702 1066 -1334 1192 -141 28 -443 36
-581 15z m396 -175 c378 -39 688 -187 956 -454 233 -234 371 -493 436 -818 28
-147 31 -414 5 -555 -63 -335 -211 -618 -447 -852 -215 -213 -517 -370 -820
-427 -146 -28 -440 -25 -580 5 -219 47 -387 117 -568 237 -336 224 -574 575
-665 982 -18 83 -21 129 -22 317 0 240 8 299 67 485 221 696 917 1155 1638
1080z"/>
<path d="M1603 2825 c-304 -55 -534 -245 -609 -503 l-21 -74 -65 -22 c-81 -29
-140 -69 -206 -140 -203 -223 -157 -584 94 -751 65 -43 185 -85 244 -85 l39 0
3 523 3 522 36 75 c64 134 160 229 299 300 212 107 496 99 708 -21 31 -18 92
-67 134 -109 84 -83 138 -177 158 -275 7 -34 10 -224 8 -561 l-3 -509 -34 -63
c-64 -117 -188 -211 -352 -266 l-77 -26 -56 26 c-135 62 -344 31 -395 -58 -47
-82 132 -167 296 -140 79 13 151 47 165 77 8 18 31 30 97 50 259 81 422 234
465 437 5 21 16 30 55 43 196 65 341 266 341 475 0 215 -147 420 -341 478
l-57 16 -12 54 c-31 142 -152 305 -295 401 -175 117 -410 165 -622 126z"/>
</g>
</svg>
